#!OML:ASF F:\VICON\USERDATA\INSTALL\rory3\rory3.ASF
:FULLY-SPECIFIED
:DEGREES
9
root 0.5929594891378454 18.17779215771988 -21.755486299282033 -3.600459060467421 -1.614357589594771 -5.098231287687387
lfemur -17.85029700615839 2.9210692965988736 -15.51420713568205
ltibia 69.64558921502841
lfoot -2.0489404384092116 -5.814929294636803
ltoes -5.130742291860031
rfemur -9.609442933162402 5.36778442474516 31.41269335242962
rtibia 27.67310777304753
rfoot -11.319493746162447 -4.595474341487309
rtoes 6.282447271869538
lowerback 10.364307212478233 0.28609165400621306 3.5766239215584585
upperback 0.7932523332928794 0.960212116541052 3.156175183697859
thorax -4.98646044350996 0.42847532479949674 1.1442584867866756
lowerneck -16.794904318579185 -3.201972274275068 -1.9640813942917437
upperneck 22.317190759443097 -3.9541434400303253 0.03067720753006342
head 9.906740302901792 -1.9943214896773938 -0.19079120155621154
lclavicle -9.152774845599273e-16 -7.746724385102027e-16
lhumerus -30.339106184950133 -0.1722707892767592 85.19740233830387
lradius 26.689608164690675
lwrist 5.367898017880071
lhand -27.46170152330997 21.592292384094407
lfingers 7.125020000000057
lthumb -0.8660245229116954 51.57029236229443
rclavicle -9.152774845599273e-16 -7.746724385102027e-16
rhumerus -27.699007541220617 -18.219693065376532 -77.51660785881893
rradius 22.591409421876747
rwrist 7.2632303688516595
rhand -16.67440762851895 12.74711902552513
rfingers 7.125020000000057
rthumb 9.549472370878267 -17.01648102140683
10
root 0.5744527622904263 18.120893482216946 -21.113186577559603 -3.377449692252628 -2.1558361387655074 -5.728929470213426
lfemur -22.482294438738855 2.8518594736037164 -14.831108160119225
ltibia 67.3416901251452
lfoot -5.625417866855969 -3.790311879436145
ltoes -3.8607836349303457
rfemur -8.176013722905077 6.7508411481713395 32.76749126351801
rtibia 28.986807282071027
rfoot -13.806292011123672 -7.417798912523307
rtoes 5.434378047014261
lowerback 10.888305369454384 0.4690184327632855 4.140092482625854
upperback -0.11950862907151855 1.3554184714960122 3.2084647086205154
thorax -6.231894361669973 0.5868778217064208 0.8234387729270529
lowerneck -13.480419963106463 -3.000774040838603 -2.2237372185805198
upperneck 21.32149264872029 -3.7316747342154697 0.25848960806533183
head 8.94846680068805 -1.9039627429640118 0.025145025880821514
lclavicle -9.15277522620951e-16 -7.74672516629834e-16
lhumerus -33.929203663818484 -0.21311774336251643 85.26920224022138
lradius 27.52030796829768
lwrist 6.22625741513238
lhand -26.478204598145222 22.74719132062434
lfingers 7.125020000000057
lthumb 0.08390880155075187 52.7269912973308
rclavicle -9.15277522620951e-16 -7.74672516629834e-16
rhumerus -28.34830704766568 -14.21239546109907 -78.70030676226659
rradius 24.928208860693523
rwrist 4.713372488629434
rhand -16.91750622400228 12.06341979358545
rfingers 7.125020000000057
rthumb 9.31490377515355 -17.71078024117771
11
root 0.5777777132153561 18.04899515587844 -20.45268686372238 -2.8738911188332836 -2.6081949267223576 -6.245667981135449
lfemur -26.15329240398124 2.5240103120814554 -14.286708976549642
ltibia 62.414792071433745
lfoot -7.661596402806026 -1.2918050692431224
ltoes -4.227433247172671
rfemur -6.580614601884509 7.085800354625748 33.67098987044772
rtibia 29.729907004348156
rfoot -16.974589800602732 -8.053317690052793
rtoes 2.611540627119104
lowerback 10.699706032802283 0.916024448493082 5.224129714314331
upperback 0.3022802704121748 2.0228456933325885 2.817288262660561
thorax -5.617787360544873 0.8920599258107342 -0.29468274461389143
lowerneck -15.507010397501098 -3.1419528012588813 -1.776054418088175
upperneck 21.462192381751017 -4.053342862949523 0.5176892433423461
head 9.372033928597089 -1.9773717247726592 -0.03504307833540088
lclavicle -9.152774890486955e-16 -7.746725358287422e-16
lhumerus -33.77040377533507 -1.2597615668768831 85.2574022563408
lradius 27.344208009930902
lwrist 6.2730073823041135
lhand -26.397004852010625 21.042692890184256
lfingers 7.125020000000057
lthumb 0.16230214774170015 51.02229286683328
rclavicle -9.152774890486955e-16 -7.746725358287422e-16
rhumerus -26.31980858959728 -12.5150964758122 -80.31170526950287
rradius 26.921708381954076
rwrist 2.4297143871068716
rhand -19.143893360917485 21.762108898182753
rfingers 7.125020000000057
rthumb 7.166216638547455 -8.096591045266427
12
root 0.5899785331356757 17.978796789967966 -19.80268714533604 -2.480052234578225 -2.929874064820243 -6.881136149915889
lfemur -28.363591178858744 1.909161884562877 -13.455510223090695
ltibia 54.92329503082408
lfoot -8.448255837183387 2.0327406863581228
ltoes -0.7747088986707604
rfemur -4.427805787966795 6.721861216827147 34.40248874257735
rtibia 29.51050708634573
rfoot -18.454588768007635 -7.607938546774717
rtoes 4.605568804555137
lowerback 10.85380549079851 1.0396266233089122 6.106387461288137
upperback 0.37684936867933533 2.3013245341654085 2.7929584837091683
thorax -5.580017544986593 1.0065048398344307 -0.8568504909287048
lowerneck -15.985308139912506 -3.08936326300628 -1.8316035247632172
upperneck 21.255292774330552 -3.930693576447108 0.4325316917089834
head 9.386433830955355 -1.9319323550221488 -0.045590903826606854
lclavicle -9.152775065762557e-16 -7.746724997479978e-16
lhumerus -34.27020342435276 -0.7795831066240702 85.2048023281951
lradius 26.851108126509025
lwrist 5.679427799121042
lhand -27.13730253752101 23.579790553938725
lfingers 7.125020000000057
lthumb -0.5526945373598803 53.5587905314998
rclavicle -9.152775065762557e-16 -7.746724997479978e-16
rhumerus -24.900209668683353 -9.940578014962135 -81.38510427512989
rradius 28.608507976868587
rwrist 0.2773771764130961
rhand -19.50539127234169 22.26790832997313
rfingers 7.125020000000057
rthumb 6.817268727569335 -7.6023316006978625
